<svg xmlns="http://www.w3.org/2000/svg" xmlns:xlink="http://www.w3.org/1999/xlink" width="16" height="16" version="1.1" viewBox="0 0 16 16"><title>light/wizard</title><g id="light/wizard" fill="none" fill-rule="evenodd" stroke="none" stroke-width="1"><g id="Group" fill="#424242" fill-rule="nonzero" transform="translate(1.500000, 1.500000)"><path id="Shape" d="M6.5,1.08333333 L6.5,6.64444444 L11.9166667,6.64444444 L11.9166667,13 L0,13 L0,1.08333333 L6.5,1.08333333 Z M5.41666667,11.9166667 L5.41666667,7.58333333 L1.08333333,7.58333333 L1.08333333,11.9166667 L5.41666667,11.9166667 Z M5.41666667,6.5 L5.41666667,2.16666667 L1.08333333,2.16666667 L1.08333333,6.5 L5.41666667,6.5 Z M10.8333333,7.58333333 L6.5,7.58333333 L6.5,11.9166667 L10.8333333,11.9166667 L10.8333333,7.58333333 Z M10.5625,2.4375 L13,2.4375 L13,3.25 L10.5625,3.25 L10.5625,5.6875 L9.75,5.6875 L9.75,3.25 L7.3125,3.25 L7.3125,2.4375 L9.75,2.4375 L9.75,0 L10.5625,0 L10.5625,2.4375 Z"/></g></g></svg>